<svg width="42" height="42" viewBox="0 0 42 42" fill="none" xmlns="http://www.w3.org/2000/svg">
  <!-- Gear Icon -->
  <g>
    <path 
      d="M21 26C24.866 26 28 22.866 28 19C28 15.134 24.866 12 21 12C17.134 12 14 15.134 14 19C14 22.866 17.134 26 21 26Z" 
      fill="url(#gearGradient)"
      stroke="url(#gearStrokeGradient)" 
      stroke-width="2"/>
    <!-- Gear Teeth -->
    <g stroke="url(#gearStrokeGradient)" stroke-width="2">
      <path d="M21 2V6" />
      <path d="M21 36V40" />
      <path d="M2 21H6" />
      <path d="M36 21H40" />
      <path d="M5.66 5.66L8.49 8.49" />
      <path d="M33.51 33.51L36.34 36.34" />
      <path d="M5.66 36.34L8.49 33.51" />
      <path d="M33.51 8.49L36.34 5.66" />
    </g>
  </g>
  
  <!-- Code Brackets -->
  <g>
    <path 
      d="M12 30L16 22L20 30" 
      stroke="url(#bracketGradient)" 
      stroke-width="2" 
      stroke-linecap="round" 
      stroke-linejoin="round"/>
    <path 
      d="M30 30L26 22L22 30" 
      stroke="url(#bracketGradient)" 
      stroke-width="2" 
      stroke-linecap="round" 
      stroke-linejoin="round"/>
  </g>
  
  <!-- Definitions for Gradients -->
  <defs>
    <!-- Gear Gradient -->
    <linearGradient id="gearGradient" x1="14" y1="12" x2="28" y2="26" gradientUnits="userSpaceOnUse">
      <stop offset="0%" stop-color="#FFDB6E"/>
      <stop offset="100%" stop-color="#FFBC5E"/>
    </linearGradient>
    <!-- Gear Stroke Gradient -->
    <linearGradient id="gearStrokeGradient" x1="14" y1="12" x2="28" y2="26" gradientUnits="userSpaceOnUse">
      <stop offset="0%" stop-color="#FFBC5E"/>
      <stop offset="100%" stop-color="#FFDB6E"/>
    </linearGradient>
    <!-- Bracket Gradient -->
    <linearGradient id="bracketGradient" x1="12" y1="22" x2="30" y2="30" gradientUnits="userSpaceOnUse">
      <stop offset="0%" stop-color="#6EC5FF"/>
      <stop offset="100%" stop-color="#3B82F6"/>
    </linearGradient>
  </defs>
</svg>
