<svg width="123" height="120" viewBox="0 0 123 120" fill="none" xmlns="http://www.w3.org/2000/svg">
<path d="M76.1398 60.81C77.9654 58.9871 80.9204 58.9919 82.7401 60.8206C84.5598 62.6493 84.555 65.6095 82.7295 67.4324L74.6232 75.5268C67.1445 82.9947 54.9492 83.103 47.3444 75.7783C47.3004 75.7362 43.9141 72.4159 32.7432 61.4619C25.3114 54.1749 24.571 42.5145 31.5645 35.0266L44.6038 21.0648C51.5448 13.6324 64.3394 12.8201 72.2754 19.2379L84.1182 28.8155C86.1237 30.4375 86.437 33.381 84.8179 35.3901C83.1987 37.3992 80.2603 37.713 78.2548 36.091L66.412 26.5134C62.2617 23.157 55.0015 23.618 51.4202 27.4529L38.3807 41.4149C34.9761 45.0602 35.349 50.9327 39.2725 54.7798C47.4756 62.8235 53.7976 69.0224 53.8049 69.0294C57.7586 72.8375 64.1515 72.7807 68.0335 68.9044L76.1398 60.81Z" fill="#FFA116"/>
<path fill-rule="evenodd" clip-rule="evenodd" d="M56.4475 52.7097C53.8699 52.7097 51.7804 50.6165 51.7804 48.0344C51.7804 45.4523 53.8699 43.3592 56.4475 43.3592H90.8675C93.4451 43.3592 95.5346 45.4523 95.5346 48.0344C95.5346 50.6165 93.4451 52.7097 90.8675 52.7097H56.4475Z" fill="#B3B3B3"/>
<path fill-rule="evenodd" clip-rule="evenodd" d="M62.8934 1.48122C64.6544 -0.404334 67.6078 -0.502851 69.4901 1.26118C71.3724 3.02521 71.4707 5.98379 69.7098 7.86934L38.3809 41.415C34.9761 45.06 35.349 50.9325 39.2723 54.7798L53.7404 68.9671C55.5824 70.7734 55.6139 73.7334 53.8109 75.5786C52.0078 77.4238 49.0529 77.4554 47.2109 75.6491L32.7427 61.4617C25.3114 54.1743 24.571 42.514 31.5648 35.0266L62.8934 1.48122Z" fill="black"/>
<path fill-rule="evenodd" clip-rule="evenodd" d="M2.65118 100.056V115.265C2.65118 115.849 2.86137 116.349 3.28174 116.763C3.70211 117.178 4.20845 117.385 4.80079 117.385H8.97103C9.33408 117.385 9.64458 117.512 9.90253 117.767C10.1605 118.021 10.2895 118.327 10.2895 118.685V118.714C10.2895 119.072 10.1605 119.373 9.90253 119.618C9.64458 119.873 9.33408 120 8.97103 120H4.80079C3.47281 120 2.34069 119.538 1.40441 118.615C0.468132 117.691 0 116.575 0 115.265V100.056C0 99.6983 0.128975 99.392 0.38693 99.1376C0.644884 98.8926 0.950603 98.7701 1.3041 98.7701H1.34709C1.70058 98.7701 2.0063 98.8926 2.26425 99.1376C2.52221 99.392 2.65118 99.6983 2.65118 100.056ZM19.2605 107.208C17.8274 107.208 16.6046 107.708 15.5919 108.707C14.5887 109.705 14.0871 110.912 14.0871 112.325C14.0871 112.579 14.1062 112.829 14.1444 113.074L23.2158 109.032C22.184 107.816 20.8656 107.208 19.2605 107.208ZM26.4117 110.063C26.5359 109.724 26.5216 109.394 26.3687 109.074C25.7477 107.727 24.8019 106.643 23.5312 105.823C22.2414 104.985 20.8179 104.565 19.2607 104.565C17.1015 104.565 15.2576 105.319 13.729 106.827C12.2004 108.334 11.4361 110.153 11.4361 112.283C11.4361 114.412 12.2004 116.231 13.729 117.738C15.2576 119.246 17.1015 120 19.2607 120C20.9421 120 22.466 119.515 23.8322 118.544C25.1697 117.602 26.106 116.367 26.641 114.841C26.7938 114.417 26.7413 114.026 26.4833 113.668C26.2158 113.3 25.8576 113.117 25.4085 113.117C24.778 113.117 24.3576 113.409 24.1474 113.993C23.7939 115.001 23.1777 115.821 22.2988 116.452C21.3911 117.102 20.3785 117.428 19.2607 117.428C17.5792 117.428 16.2225 116.777 15.1907 115.477L20.4501 113.131C22.6284 112.16 24.3863 111.378 25.7238 110.784C26.0582 110.634 26.2875 110.393 26.4117 110.063ZM36.7013 107.208C35.2682 107.208 34.0453 107.708 33.0326 108.707C32.0295 109.705 31.5279 110.912 31.5279 112.325C31.5279 112.579 31.547 112.829 31.5852 113.074L40.6566 109.032C39.6247 107.816 38.3063 107.208 36.7013 107.208ZM43.852 110.063C43.9762 109.724 43.9619 109.394 43.809 109.074C43.188 107.727 42.2422 106.643 40.9716 105.823C39.6818 104.985 38.2583 104.565 36.701 104.565C34.5418 104.565 32.698 105.319 31.1693 106.827C29.6407 108.334 28.8764 110.153 28.8764 112.283C28.8764 114.412 29.6407 116.231 31.1693 117.738C32.698 119.246 34.5418 120 36.701 120C38.3825 120 39.9063 119.515 41.2725 118.544C42.61 117.602 43.5463 116.367 44.0813 114.841C44.2342 114.417 44.1816 114.026 43.9237 113.668C43.6562 113.3 43.2979 113.117 42.8489 113.117C42.2183 113.117 41.798 113.409 41.5878 113.993C41.2343 115.001 40.6181 115.821 39.7391 116.452C38.8315 117.102 37.8188 117.428 36.701 117.428C35.0195 117.428 33.6629 116.777 32.6311 115.477L37.8904 113.131C40.0687 112.16 41.8266 111.378 43.1642 110.784C43.4985 110.634 43.7278 110.393 43.852 110.063ZM48.094 98.7701C48.4475 98.7701 48.7532 98.8926 49.0111 99.1376C49.2691 99.392 49.3981 99.6983 49.3981 100.056V104.565H51.9776C52.3311 104.565 52.6368 104.692 52.8948 104.947C53.1527 105.201 53.2817 105.508 53.2817 105.866V105.894C53.2817 106.252 53.1527 106.553 52.8948 106.798C52.6368 107.053 52.3311 107.18 51.9776 107.18H49.3981V115.986C49.3981 116.372 49.5366 116.702 49.8137 116.975C50.0907 117.248 50.4299 117.385 50.8311 117.385H51.9776C52.3311 117.385 52.6368 117.512 52.8948 117.767C53.1527 118.021 53.2817 118.327 53.2817 118.685V118.714C53.2817 119.072 53.1527 119.373 52.8948 119.618C52.6368 119.873 52.3311 120 51.9776 120H50.8311C49.7038 120 48.7389 119.609 47.9363 118.827C47.1434 118.035 46.7469 117.088 46.7469 115.986V100.056C46.7469 99.6983 46.8759 99.392 47.1338 99.1376C47.3918 98.8926 47.6975 98.7701 48.051 98.7701H48.094ZM68.3719 99.0952C67.493 98.8785 66.5997 98.7701 65.6921 98.7701C62.7209 98.7701 60.1843 99.8066 58.0825 101.88C55.9806 103.953 54.9297 106.455 54.9297 109.385C54.9297 112.316 55.9806 114.817 58.0825 116.89C60.1843 118.963 62.7209 120 65.6921 120C66.5997 120 67.493 119.892 68.3719 119.675C69.0312 119.505 69.3608 119.086 69.3608 118.417V118.389C69.3608 117.965 69.1888 117.625 68.8449 117.371C68.5105 117.117 68.1379 117.041 67.7271 117.145C67.0583 117.305 66.38 117.385 65.6921 117.385C63.4565 117.385 61.5458 116.608 59.9598 115.053C58.3739 113.489 57.5809 111.599 57.5809 109.385C57.5809 107.171 58.3739 105.281 59.9598 103.717C61.5458 102.153 63.4565 101.371 65.6921 101.371C66.38 101.371 67.0583 101.456 67.7271 101.625C68.1379 101.729 68.5105 101.654 68.8449 101.399C69.1888 101.135 69.3608 100.796 69.3608 100.381V100.339C69.3608 99.6794 69.0312 99.2648 68.3719 99.0952ZM79.0481 107.208C77.615 107.208 76.3922 107.708 75.3794 108.707C74.3763 109.705 73.8747 110.912 73.8747 112.325C73.8747 113.729 74.3763 114.93 75.3794 115.929C76.3922 116.928 77.615 117.428 79.0481 117.428C80.4812 117.428 81.6993 116.928 82.7025 115.929C83.7152 114.93 84.2215 113.729 84.2215 112.325C84.2215 110.912 83.7152 109.705 82.7025 108.707C81.6993 107.708 80.4812 107.208 79.0481 107.208ZM84.5799 106.827C83.0513 105.319 81.2074 104.565 79.0483 104.565C76.8891 104.565 75.0452 105.319 73.5166 106.827C71.988 108.334 71.2237 110.153 71.2237 112.283C71.2237 114.412 71.988 116.231 73.5166 117.738C75.0452 119.246 76.8891 120 79.0483 120C81.2074 120 83.0513 119.246 84.5799 117.738C86.1085 116.231 86.8728 114.412 86.8728 112.283C86.8728 110.153 86.1085 108.334 84.5799 106.827ZM96.704 107.208C95.271 107.208 94.0481 107.708 93.0354 108.707C92.0322 109.705 91.5307 110.912 91.5307 112.325C91.5307 113.729 92.0322 114.93 93.0354 115.929C94.0481 116.928 95.271 117.428 96.704 117.428C98.1371 117.428 99.3552 116.928 100.358 115.929C101.371 114.93 101.877 113.729 101.877 112.325C101.877 110.912 101.371 109.705 100.358 108.707C99.3552 107.708 98.1371 107.208 96.704 107.208ZM104.142 99.1376C103.884 98.8926 103.578 98.7701 103.224 98.7701H103.181C102.828 98.7701 102.522 98.8926 102.264 99.1376C102.006 99.392 101.877 99.6983 101.877 100.056V106.502C100.396 105.211 98.672 104.565 96.7039 104.565C94.5447 104.565 92.7008 105.319 91.1722 106.827C89.6436 108.334 88.8793 110.153 88.8793 112.283C88.8793 114.412 89.6436 116.231 91.1722 117.738C92.7008 119.246 94.5447 120 96.7039 120C98.8535 120 100.693 119.251 102.221 117.753C103.75 116.254 104.519 114.445 104.528 112.325V100.056C104.528 99.6983 104.399 99.392 104.142 99.1376ZM114.789 107.208C113.356 107.208 112.133 107.708 111.12 108.707C110.117 109.705 109.616 110.912 109.616 112.325C109.616 112.579 109.635 112.829 109.673 113.074L118.744 109.032C117.712 107.816 116.394 107.208 114.789 107.208ZM121.94 110.063C122.064 109.724 122.05 109.394 121.897 109.074C121.276 107.727 120.33 106.643 119.06 105.823C117.77 104.985 116.346 104.565 114.789 104.565C112.63 104.565 110.786 105.319 109.257 106.827C107.729 108.334 106.964 110.153 106.964 112.283C106.964 114.412 107.729 116.231 109.257 117.738C110.786 119.246 112.63 120 114.789 120C116.47 120 117.994 119.515 119.36 118.544C120.698 117.602 121.634 116.367 122.169 114.841C122.322 114.417 122.27 114.026 122.012 113.668C121.744 113.3 121.386 113.117 120.937 113.117C120.306 113.117 119.886 113.409 119.676 113.993C119.322 115.001 118.706 115.821 117.827 116.452C116.919 117.102 115.907 117.428 114.789 117.428C113.107 117.428 111.751 116.777 110.719 115.477L115.978 113.131C118.157 112.16 119.915 111.378 121.252 110.784C121.586 110.634 121.816 110.393 121.94 110.063Z" fill="black"/>
</svg>
