<?xml version="1.0" encoding="UTF-8"?>
<svg
    width="160" height="160" viewBox="0 0 160 160"
    xmlns="http://www.w3.org/2000/svg"
    xmlns:xlink="http://www.w3.org/1999/xlink"
>
    <!-- 定义渐变 -->
    <defs>
        <linearGradient id="paint0_linear" x1="0" y1="0" x2="160" y2="160" gradientUnits="userSpaceOnUse">
            <stop offset="0%" stop-color="#FFDB6E"/>
            <stop offset="100%" stop-color="#FFBC5E"/>
        </linearGradient>
    </defs>
    
    <!-- 应用路径并使用渐变填充 -->
    <g>
        <path
            d="M79.7,169.8h1.1v1h-3.3v-1h1.2v-3.4h-1.1l-0.2-1h2.3V169.8z 
               M85.7,169.2c0,1-0.8,1.7-1.8,1.7c-1,0-1.8-0.7-1.8-1.7c0-0.6,0.3-1,0.7-1.3
               c-0.3-0.2-0.5-0.6-0.5-1.1c0-0.9,0.7-1.5,1.6-1.5c0.9,0,1.6,0.6,1.6,1.5c0,0.4-0.2,0.8-0.5,1.1
               C85.4,168.2,85.7,168.7,85.7,169.2z 
               M84.7,169.2c0-0.4-0.3-0.8-0.8-0.8c-0.4,0-0.8,0.3-0.8,0.8c0,0.4,0.3,0.8,0.8,0.8
               C84.4,170,84.7,169.6,84.7,169.2z 
               M84.5,166.9c0-0.3-0.3-0.6-0.6-0.6c-0.3,0-0.6,0.2-0.6,0.6c0,0.3,0.3,0.6,0.6,0.6
               C84.3,167.5,84.5,167.2,84.5,166.9z 
               M87.3,166.4h1.9l-1.8,4.4h1.2l1.7-4.5l0-0.8h-3.2L87.3,166.4z 
               M95.7,167.3v1.7c0,1.1-0.8,1.9-1.9,1.9c-1.1,0-1.9-0.8-1.9-1.9v-1.7c0-1.1,0.8-1.9,1.9-1.9
               C94.9,165.4,95.7,166.2,95.7,167.3z 
               M92.9,169c0,0.6,0.4,0.9,0.9,0.9c0.5,0,0.9-0.4,0.9-0.9v-1.7c0-0.6-0.3-0.9-0.9-0.9
               c-0.5,0-0.9,0.4-0.9,0.9V169z 
               M91.2,115.9c-2.3-0.4-4.2-2.3-4.6-4.6c-0.4,2.3-2.3,4.2-4.6,4.6c2.3,0.4,4.2,2.3,4.6,4.6
               C87,118.2,88.8,116.4,91.2,115.9z 
               M25.3,159.3h1.1v-5.4h-1.1V159.3z 
               M32.3,159.3h1.1v-5.4h-1.1v3.5l-2.5-3.5h-1.3v0.1l0.4,0.6v4.7H30v-3.2L32.3,159.3z 
               M38.5,154.1c-0.3-0.1-0.7-0.3-1.1-0.3c-1.4,0-1.8,0.8-1.8,1.5c0,0.6,0.2,1,0.9,1.4l0.8,0.5
               c0.3,0.2,0.4,0.4,0.4,0.6c0,0.3-0.2,0.5-0.7,0.5c-0.5,0-1-0.2-1.3-0.5v1.2c0.3,0.1,0.8,0.3,1.3,0.3
               c1.2,0,1.8-0.8,1.8-1.6c0-0.6-0.3-1.1-1-1.5l-0.8-0.5c-0.2-0.1-0.3-0.3-0.3-0.5c0-0.3,0.2-0.5,0.7-0.5
               c0.5,0,0.9,0.2,1.2,0.4V154.1z 
               M41.7,159.3h1.1V155h1.3l0.2-1h-3.9v1h1.3V159.3z 
               M46.1,159.3h1.1v-5.4h-1.1V159.3z 
               M57.8,153.9v3.4c0,0.6-0.4,1-1,1c-0.6,0-1-0.4-1-1v-3.4h-1.1v3.4c0,1.3,0.8,2.1,2,2.1c1.2,0,2-0.8,2-2.1v-3.4H57.8z 
               M69.5,159.3l0.2-1h-2.1V157H69v-1h-1.5v-1h2.1l-0.2-1h-3v5.4H69.5z 
               M77.3,153.8c-1.6,0-2.8,1.2-2.8,2.8c0,1.6,1.2,2.8,2.8,2.8c1.6,0,2.8-1.2,2.8-2.8C80.1,155,78.9,153.8,77.3,153.8z 
               M77.3,158.3c-1,0-1.7-0.8-1.7-1.7c0-1,0.7-1.7,1.7-1.7c1,0,1.7,0.8,1.7,1.7C79,157.6,78.3,158.3,77.3,158.3z 
               M85.2,157v-1h-1.8v-1h2l0.2-1h-3.2v5.4h1.1V157H85.2z 
               M105.3,157.9c-0.3,0.3-0.7,0.4-1.3,0.4c-1,0-1.7-0.8-1.7-1.7c0-1,0.7-1.7,1.7-1.7c0.5,0,1,0.2,1.3,0.4
               v-1.2c-0.4-0.2-0.8-0.3-1.2-0.3c-1.6,0-2.8,1.2-2.8,2.8c0,1.6,1.2,2.8,2.8,2.8c0.5,0,0.9-0.1,1.2-0.3
               V157.9z 
               M111,159.3h1.1V155h1.3l0.2-1h-3.9v1h1.3V159.3z 
               M114.2,153.9l0.4,0.7v4.7h1.1v-3.2l2.3,3.2h1.1v-5.4h-1.1v3.5l-2.5-3.5H114.2z 
               M123.6,153.8c-1.6,0-2.8,1.2-2.8,2.8c0,1.6,1.2,2.8,2.8,2.8c1.6,0,2.8-1.2,2.8-2.8C126.4,155,125.1,153.8,123.6,153.8z 
               M123.6,158.3c-1,0-1.7-0.8-1.7-1.7c0-1,0.7-1.7,1.7-1.7c1,0,1.7,0.8,1.7,1.7C125.3,157.6,124.5,158.3,123.6,158.3z 
               M131.2,159.3l0.2-1h-2.1V157h1.5v-1h-1.5v-1h2.1l-0.2-1h-3v5.4H131.2z 
               M135.5,153.8c-1.6,0-2.8,1.2-2.8,2.8c0,1.6,1.2,2.8,2.8,2.8c1.6,0,2.8-1.2,2.8-2.8C138.3,155,137.1,153.8,135.5,153.8z 
               M135.5,158.3c-1,0-1.7-0.8-1.7-1.7c0-1,0.7-1.7,1.7-1.7c1,0,1.7,0.8,1.7,1.7C137.2,157.6,136.4,158.3,135.5,158.3z 
               M147.8,159.3h1.1V155h1.3l0.2-1h-3.9v1h1.3V159.3z 
               M144.7,158.8v-2.3h-2l0,1h0.9l0,0.7c-0.2,0.1-0.4,0.1-0.7,0.1c-0.3,0-0.7-0.1-0.9-0.2
               c-0.3-0.1-0.5-0.3-0.6-0.6c-0.2-0.2-0.2-0.5-0.2-0.9c0-0.6,0.2-1,0.5-1.3c0.3-0.3,0.8-0.4,1.4-0.4
               c0.2,0,0.4,0,0.6,0.1c0.2,0.1,0.4,0.1,0.6,0.2l0.3-1c-0.2-0.1-0.5-0.2-0.8-0.3
               c-0.3-0.1-0.6-0.1-0.9-0.1c-0.5,0-1,0.1-1.4,0.3c-0.4,0.2-0.8,0.5-1,1c-0.3,0.4-0.4,1-0.4,1.6
               c0,0.5,0.1,1,0.4,1.4c0.2,0.4,0.6,0.7,1,0.9c0.4,0.2,0.9,0.3,1.5,0.3c0.2,0,0.4,0,0.7-0.1
               c0.3-0.1,0.5-0.1,0.7-0.2C144.5,159,144.6,158.9,144.7,158.8z 
               M50.4,159.3h1.1V155h1.3l0.2-1h-3.9v1h1.3V159.3z 
               M62.1,159.3h1.1V155h1.3l0.2-1h-3.9v1h1.3V159.3z 
               M91.8,159.3h1.1V155h1.3l0.2-1h-3.9v1h1.3V159.3z 
               M99.4,159.3l0.2-1h-2.1V157h1.5v-1h-1.5v-1h2.1l-0.2-1h-3v5.4H99.4z"
            fill="#7F7F7F"
        />
        <path
            d="M40.4,126.7h17.5l-0.6,3.6h-6.6v17.5h-3.8v-17.5h-6.6V126.7z 
               M33.9,136.4l-3.2-2c-1.1-0.7-1.6-1.4-1.6-2.2c0-1.4,1.1-2.2,2.9-2.2c1.5,0,3.2,0.6,4.4,1.5l0.2,0.2v-4.2l-0.1,0
               c-1-0.5-2.6-1.1-4.5-1.1c-5.2,0-7,3.1-7,5.9c0,2.4,1,4.1,3.5,5.5l3.2,2c1.3,0.8,1.9,1.5,1.9,2.4c0,1.4-1.2,2.3-3.1,2.3
               c-2,0-3.9-1-5-1.8l-0.2-0.2v4.3l0.1,0c0.9,0.5,2.8,1.2,5.3,1.2c3.5,0,6.9-1.9,6.9-6.1C37.6,139.6,36.5,137.9,33.9,136.4z 
               M73.9,130.3l-0.6-3.6H61.6v21.1h12l0.6-3.6h-8.8v-5.8h6.1v-3.6h-6.1v-4.4H73.9z 
               M112,130.3l-0.6-3.6H99.7v21.1h12l0.6-3.6h-8.8v-5.8h6.1v-3.6h-6.1v-4.4H112z 
               M86.5,143.1l-4.8-16.4h-4.2l7,21.1h4.1l7-21.1h-4.2L86.5,143.1z 
               M147,136.4l-3.2-2c-1.1-0.7-1.6-1.4-1.6-2.2c0-1.4,1.1-2.2,2.9-2.2c1.5,0,3.2,0.6,4.4,1.5l0.2,0.2v-4.2l-0.1,0
               c-1-0.5-2.6-1.1-4.5-1.1c-5.2,0-7,3.1-7,5.9c0,2.4,1,4.1,3.5,5.5l3.2,2c1.3,0.8,1.9,1.5,1.9,2.4c0,1.4-1.2,2.3-3.1,2.3
               c-2,0-3.9-1-5-1.8l-0.2-0.2v4.3l0.1,0c0.9,0.5,2.8,1.2,5.3,1.2c3.5,0,6.9-1.9,6.9-6.1C150.8,139.6,149.6,137.9,147,136.4z 
               M129.6,126.7v13.9l-8.1-13.9h-5l1.7,2.7v18.4h3.8v-13.2l7.7,13.2h3.7v-21.1H129.6z 
               M57.5,114.8V80l29-13.4v36.6l29,9.7v1.9l-29-9.7L57.5,114.8z 
               M67.3,87.4c0-1.5-0.7-3.5-2.1-4.6c-1.3,1.2-2.1,3.8-2.1,6v16.6l4.2-1.4V87.4z 
               M74.1,84.4c0-1.5-0.7-3.5-2.1-4.6c-1.3,1.2-2.1,3.8-2.1,6V103l4.2-1.4V84.4z 
               M81,81.4c0-1.5-0.7-3.5-2.1-4.6c-1.3,1.2-2.1,3.8-2.1,6v17.9l4.2-1.4V81.4z 
               M86.6,17.5l-7.6,24.9l4.6-2.5L86.6,17.5z 
               M94.2,76.8c-1.4,1.1-2.1,3.1-2.1,4.6v17.9l4.2,1.4V82.7C96.3,80.5,95.5,77.9,94.2,76.8z 
               M101,79.8c-1.4,1.1-2.1,3.1-2.1,4.6v17.2l4.2,1.4V85.7C103.1,83.5,102.3,80.9,101,79.8z 
               M107.9,82.7c-1.4,1.1-2.1,3.1-2.1,4.6v16.6l4.2,1.4V88.7C110,86.5,109.2,83.9,107.9,82.7z 
               M83.5,47.4v1.9h6.1l4.6,2.4v-1.9l-4.6-2.4L83.5,47.4z 
               M86.6,66.6l29,13.4v-1.9l-29-13.4V66.6z 
               M94.2,42.4l-4.6-2.5l-6.1,0v1.9h6.1l2.9,1.6v2.4l1.6-0.8V42.4z 
               M86.6,64.7l-29,13.4l11.1-13.5v-4.1l3.4-5.2l3.4,2v9.5l4.5-8.4L75.7,56l3.2-4.2l4.6-2.4L86.6,64.7z 
               M74.1,59.4l-4.2,2v6.5l4.2-1.9V59.4z 
               M97.7,66.8v-9.5l3.4-2l-4.3,1l-3.5,2.1L97.7,66.8z 
               M103.1,67.8v-6.5l-4.2-2V66L103.1,67.8z 
               M80.5,49l2.9-1.6v-5.6l-2.9,1.6V49z"
            fill="#A32638"
        />
    </g>
</svg>
